<svg xmlns="http://www.w3.org/2000/svg" xmlns:xlink="http://www.w3.org/1999/xlink" viewBox="0 0 333 167.28"><defs><style>.a{fill:#6dcc88;}.a,.b,.c,.d,.e{fill-rule:evenodd;}.b{fill:url(#a);}.c{fill:url(#b);}.d{fill:url(#c);}.e{fill:#f12838;}</style><linearGradient id="a" x1="25.5" y1="103.5" x2="25.5" gradientUnits="userSpaceOnUse"><stop offset="0" stop-color="#3ea767"/><stop offset="1" stop-color="#52ba69"/></linearGradient><linearGradient id="b" x1="307.5" y1="103.5" x2="307.5" xlink:href="#a"/><linearGradient id="c" x1="199.04" y1="167.28" x2="199.04" y2="103.5" gradientUnits="userSpaceOnUse"><stop offset="0" stop-color="#f68d6c"/><stop offset="1" stop-color="#f0534e"/></linearGradient></defs><polygon class="a" points="50.88 51.63 50.88 103.5 102 103.5 50.88 51.63"/><polygon class="b" points="51 103.5 51 51.75 0 0 0 103.5 51 103.5"/><polygon class="a" points="282.13 51.63 282.13 103.5 231 103.5 282.13 51.63"/><polygon class="c" points="282 103.5 282 51.75 333 0 333 103.5 282 103.5"/><polygon class="d" points="167.07 103.5 167.07 167.28 231 103.5 167.07 103.5"/><polygon class="e" points="167.07 167.28 167.07 103.5 102 103.5 167.07 167.28"/></svg>