<svg xmlns="http://www.w3.org/2000/svg" xmlns:xlink="http://www.w3.org/1999/xlink" viewBox="0 0 240 54"><defs><style>.a{fill:#f12838;}.a,.b,.c,.d,.e,.f{fill-rule:evenodd;}.b{fill:#4fbb65;}.c{fill:#6dcc88;}.d{fill:url(#a);}.e{fill:url(#b);}.f{fill:url(#c);}</style><linearGradient id="a" x1="8.07" y1="30.57" x2="8.07" y2="10.4" gradientUnits="userSpaceOnUse"><stop offset="0" stop-color="#3ea767"/><stop offset="1" stop-color="#52ba69"/></linearGradient><linearGradient id="b" x1="63.03" y1="30.57" x2="63.03" y2="10.4" xlink:href="#a"/><linearGradient id="c" x1="41.89" y1="43" x2="41.89" y2="30.57" gradientUnits="userSpaceOnUse"><stop offset="0" stop-color="#f68d6c"/><stop offset="1" stop-color="#f0534e"/></linearGradient></defs><path class="a" d="M95,15.05V32.3H93.27V21.09l-6.13,11.3H87l-6.16-11.3V32.3H79.09V15.05h.09l7.87,14.14,7.88-14.14Zm12.56,0a8,8,0,0,1,6,2.5,8.69,8.69,0,0,1,2.41,6.29,8.66,8.66,0,0,1-2.4,6.28,8.66,8.66,0,0,1-12.13,0,8.72,8.72,0,0,1-2.37-6.28,8.74,8.74,0,0,1,2.38-6.3,8,8,0,0,1,6.06-2.49Zm4.79,3.65a6.72,6.72,0,0,0-9.59,0,7.23,7.23,0,0,0-1.89,5.14,7.19,7.19,0,0,0,1.88,5.1,6.74,6.74,0,0,0,9.62,0,7.19,7.19,0,0,0,1.88-5.1,7.19,7.19,0,0,0-1.9-5.14Zm21.38-3.35-7.89,17.23h-.09l-7.92-17.23h1.9l6.06,13.38,6-13.38Zm13.83,0V17h-8.52v5.92h7.52V24.5h-7.52v6.16h8.7V32.3H137.35V15.35Z"/><path class="b" d="M163.21,15.35a6.35,6.35,0,0,1,4.25,1.34,4.66,4.66,0,0,1,1.59,3.78,4.65,4.65,0,0,1-1.58,3.77,6.43,6.43,0,0,1-4.26,1.33h-3.8V32.3h-1.18V15.35Zm-.06,1.08h-3.74v8.05h3.74a5.18,5.18,0,0,0,3.44-1,3.62,3.62,0,0,0,1.26-3,3.68,3.68,0,0,0-1.26-3,5.18,5.18,0,0,0-3.44-1.05Zm14.13,4.18v1.13h-.14a3.91,3.91,0,0,0-3.34,2.14V32.3h-1.13V20.84h1.06l0,1.68a3.92,3.92,0,0,1,3.53-1.91Zm7.81,0a5.45,5.45,0,0,1,4.1,1.69,6,6,0,0,1,1.62,4.28,5.91,5.91,0,0,1-1.62,4.27,5.84,5.84,0,0,1-8.2,0,5.91,5.91,0,0,1-1.62-4.27A6,6,0,0,1,181,22.3a5.4,5.4,0,0,1,4.1-1.69Zm0,1a4.32,4.32,0,0,0-3.3,1.39,5,5,0,0,0-1.29,3.54,5,5,0,0,0,1.29,3.53,4.62,4.62,0,0,0,6.59,0,4.93,4.93,0,0,0,1.3-3.53,5,5,0,0,0-1.3-3.53,4.27,4.27,0,0,0-3.29-1.4Zm10.65-.81h-1.13V34.35a2.4,2.4,0,0,1-.69,1.76,2.37,2.37,0,0,1-1.75.69,2.87,2.87,0,0,1-2.15-.92l-.76.76a3.9,3.9,0,0,0,2.93,1.2,3.44,3.44,0,0,0,2.54-1,3.39,3.39,0,0,0,1-2.51V20.84Zm-1.22-4.45a.91.91,0,0,1,.67-.28.93.93,0,0,1,.68.28.88.88,0,0,1,.29.67.9.9,0,0,1-.28.68,1,1,0,0,1-1.36,0,.94.94,0,0,1-.28-.68.91.91,0,0,1,.28-.67Zm10.37,4.22a4.71,4.71,0,0,1,3.79,1.63,6.32,6.32,0,0,1,1.38,4.2V27h-9.39a4.72,4.72,0,0,0,1.24,3.32,4.35,4.35,0,0,0,3.28,1.23,4.65,4.65,0,0,0,3.86-1.76l.8.67a5.63,5.63,0,0,1-4.66,2.1A5.34,5.34,0,0,1,201,30.88a6.14,6.14,0,0,1-1.5-4.3A6.24,6.24,0,0,1,201,22.29a4.91,4.91,0,0,1,3.86-1.68Zm0,1a3.93,3.93,0,0,0-2.95,1.21A4.84,4.84,0,0,0,200.67,26H209a4.81,4.81,0,0,0-1.15-3.15,3.73,3.73,0,0,0-2.91-1.21Zm13.61-1A5,5,0,0,1,222.9,23l-.83.67a4.06,4.06,0,0,0-3.57-2A4.17,4.17,0,0,0,215.18,23,5.26,5.26,0,0,0,214,26.56a5.19,5.19,0,0,0,1.2,3.57,4.24,4.24,0,0,0,3.37,1.36,4.13,4.13,0,0,0,3.62-2l.83.67a5.07,5.07,0,0,1-4.45,2.37,5.39,5.39,0,0,1-4.18-1.66,6.15,6.15,0,0,1-1.52-4.31,6.18,6.18,0,0,1,1.49-4.3,5.28,5.28,0,0,1,4.14-1.65Zm9.89-3.74v4h3.94v1h-3.94v7.06a2.64,2.64,0,0,0,.65,1.9,2.28,2.28,0,0,0,1.72.68,3.2,3.2,0,0,0,1.8-.41l.44.9a4.14,4.14,0,0,1-2.28.55,3.41,3.41,0,0,1-2.52-.93,3.7,3.7,0,0,1-.92-2.69V21.85h-2.42v-1h2.42v-4Z"/><polygon class="c" points="13.01 20.46 13.01 30.57 22.98 30.57 13.01 20.46"/><polygon class="d" points="13.04 30.57 13.04 20.48 3.1 10.4 3.1 30.57 13.04 30.57"/><polygon class="c" points="58.08 20.46 58.08 30.57 48.12 30.57 58.08 20.46"/><polygon class="e" points="58.06 30.57 58.06 20.48 68 10.4 68 30.57 58.06 30.57"/><polygon class="f" points="35.66 30.57 35.66 43 48.12 30.57 35.66 30.57"/><polygon class="a" points="35.66 43 35.66 30.57 22.98 30.57 35.66 43"/></svg>